<?xml version="1.0" encoding="UTF-8"?>
<svg width="180px" height="258px" viewBox="0 0 180 258" version="1.1" xmlns="http://www.w3.org/2000/svg" xmlns:xlink="http://www.w3.org/1999/xlink">
    <!-- Generator: Sketch 41.2 (35397) - http://www.bohemiancoding.com/sketch -->
    <title>Group</title>
    <desc>Created with Sketch.</desc>
    <defs>
        <linearGradient x1="0%" y1="0%" x2="101.999998%" y2="100.999999%" id="linearGradient-1">
            <stop stop-color="#3023AE" offset="0%"></stop>
            <stop stop-color="#C96DD8" offset="100%"></stop>
        </linearGradient>
    </defs>
    <g id="Page-1" stroke="none" stroke-width="1" fill="none" fill-rule="evenodd">
        <g id="Group">
            <path d="M139.641,19.759 C139.279,19.759 138.913,19.661 138.584,19.455 C122.895,9.662 104.906,4.485 86.564,4.485 C85.459,4.485 84.564,3.589 84.564,2.485 C84.564,1.38 85.459,0.485 86.564,0.485 C105.656,0.485 124.377,5.871 140.701,16.062 C141.639,16.646 141.924,17.88 141.339,18.817 C140.96,19.425 140.308,19.759 139.641,19.759 Z M44.249,13.854 C43.495,13.854 42.774,13.426 42.435,12.698 C41.968,11.696 42.402,10.506 43.403,10.04 C54.476,4.881 66.25,1.775 78.399,0.809 C79.513,0.727 80.464,1.542 80.551,2.644 C80.639,3.745 79.817,4.708 78.716,4.796 C67.045,5.725 55.732,8.709 45.092,13.666 C44.819,13.793 44.532,13.854 44.249,13.854 Z M10.679,52.845 C10.288,52.845 9.892,52.73 9.545,52.491 C8.636,51.864 8.408,50.618 9.035,49.709 C26.672,24.156 55.655,8.9 86.564,8.9 C101.926,8.9 117.25,12.778 130.88,20.113 C131.853,20.636 132.216,21.849 131.692,22.822 C131.171,23.794 129.959,24.158 128.983,23.635 C115.935,16.612 101.266,12.9 86.564,12.9 C56.97,12.9 29.218,27.51 12.327,51.981 C11.939,52.543 11.314,52.845 10.679,52.845 Z M172.861,72.802 C172.053,72.802 171.291,72.308 170.989,71.506 C164.328,53.814 151.878,38.287 135.932,27.783 C135.01,27.175 134.755,25.935 135.362,25.012 C135.969,24.089 137.21,23.834 138.133,24.442 C154.778,35.407 167.776,51.621 174.733,70.097 C175.122,71.13 174.6,72.284 173.566,72.673 C173.334,72.76 173.096,72.802 172.861,72.802 Z M16.021,166.891 C15.254,166.891 14.523,166.447 14.192,165.701 C5.32,145.702 0.821,124.626 0.821,103.058 C0.821,76.207 13.705,50.532 35.284,34.38 C36.168,33.717 37.421,33.898 38.083,34.782 C38.745,35.667 38.565,36.92 37.681,37.582 C16.798,53.213 4.821,77.078 4.821,103.058 C4.821,124.063 9.204,144.594 17.848,164.078 C18.296,165.088 17.841,166.27 16.831,166.718 C16.567,166.835 16.292,166.891 16.021,166.891 Z M151.088,51.873 C150.514,51.873 149.942,51.626 149.547,51.149 C133.827,32.189 110.871,21.315 86.564,21.315 C72.286,21.315 58.223,25.068 45.896,32.168 C44.938,32.72 43.716,32.391 43.165,31.434 C42.613,30.477 42.942,29.254 43.899,28.703 C56.833,21.253 71.586,17.315 86.564,17.315 C112.065,17.315 136.145,28.717 152.627,48.596 C153.332,49.446 153.214,50.707 152.363,51.412 C151.99,51.722 151.538,51.873 151.088,51.873 Z M176.172,89.11 C176.111,89.11 176.05,89.108 175.987,89.102 C173.727,88.895 170.882,88.364 167.978,87.606 C167.246,87.415 166.684,86.828 166.526,86.088 C164.391,76.07 160.408,66.638 154.688,58.053 C154.075,57.133 154.324,55.892 155.243,55.279 C156.162,54.667 157.405,54.915 158.017,55.835 C163.785,64.493 167.87,73.972 170.169,84.032 C172.442,84.578 174.604,84.958 176.353,85.119 C177.452,85.219 178.263,86.192 178.161,87.292 C178.066,88.331 177.194,89.11 176.172,89.11 Z M42.398,195.015 C41.797,195.015 41.203,194.745 40.809,194.231 C20.154,167.287 9.237,135.76 9.237,103.058 C9.237,97.971 9.736,92.884 10.721,87.937 C10.937,86.854 11.989,86.149 13.073,86.366 C14.156,86.582 14.86,87.635 14.644,88.718 C13.71,93.408 13.237,98.233 13.237,103.058 C13.237,134.872 23.869,165.559 43.984,191.798 C44.656,192.675 44.49,193.93 43.613,194.602 C43.25,194.88 42.822,195.015 42.398,195.015 Z M15.045,81.391 C14.836,81.391 14.624,81.358 14.415,81.289 C13.367,80.94 12.799,79.809 13.146,78.76 C23.092,48.785 49.837,28.04 81.284,25.909 C82.393,25.84 83.341,26.667 83.415,27.769 C83.49,28.871 82.657,29.825 81.555,29.9 C51.736,31.92 26.374,51.594 16.943,80.02 C16.665,80.859 15.884,81.391 15.045,81.391 Z M176.949,97.584 C176.922,97.584 176.896,97.584 176.867,97.583 C171.533,97.367 164.695,95.583 160.46,94.119 C159.753,93.875 159.242,93.257 159.134,92.517 C154.048,57.546 124.728,31.164 89.417,29.786 C88.314,29.743 87.454,28.813 87.497,27.709 C87.54,26.606 88.468,25.743 89.574,25.789 C126.396,27.226 157.041,54.451 162.904,90.719 C166.89,92.004 172.573,93.406 177.029,93.586 C178.133,93.631 178.991,94.562 178.946,95.665 C178.903,96.741 178.017,97.584 176.949,97.584 Z M177.18,106.02 C177.163,106.02 177.146,106.019 177.13,106.019 C168.686,105.812 157.353,102.351 152.418,99.932 C151.779,99.619 151.355,98.991 151.304,98.282 C150.23,83.7 144.104,69.721 134.052,58.92 C133.299,58.112 133.345,56.846 134.153,56.094 C134.96,55.342 136.227,55.386 136.979,56.195 C147.379,67.368 153.82,81.75 155.195,96.81 C160.144,98.98 169.995,101.842 177.228,102.02 C178.332,102.047 179.205,102.964 179.178,104.068 C179.151,105.156 178.262,106.02 177.18,106.02 Z M129.933,54.208 C129.473,54.208 129.011,54.05 128.634,53.728 C116.877,43.679 101.937,38.146 86.564,38.146 C73.579,38.146 61.039,41.984 50.299,49.246 C49.384,49.866 48.141,49.624 47.522,48.709 C46.903,47.794 47.144,46.551 48.059,45.932 C59.462,38.221 72.777,34.146 86.564,34.146 C102.889,34.146 118.752,40.02 131.233,50.687 C132.072,51.405 132.172,52.667 131.454,53.507 C131.059,53.97 130.497,54.208 129.933,54.208 Z M22.889,134.566 C21.972,134.566 21.146,133.933 20.938,133.001 C18.758,123.208 17.652,113.134 17.652,103.058 C17.652,83.513 26.03,64.801 40.639,51.72 C41.461,50.983 42.726,51.052 43.463,51.875 C44.2,52.698 44.13,53.962 43.307,54.699 C29.545,67.023 21.652,84.649 21.652,103.058 C21.652,112.842 22.726,122.624 24.843,132.132 C25.083,133.21 24.403,134.278 23.325,134.519 C23.179,134.551 23.033,134.566 22.889,134.566 Z M46.628,186.801 C46.009,186.801 45.398,186.514 45.007,185.974 C35.869,173.354 28.889,159.65 24.26,145.24 C23.922,144.188 24.501,143.063 25.553,142.725 C26.607,142.387 27.731,142.966 28.069,144.018 C32.568,158.024 39.356,171.352 48.247,183.628 C48.895,184.522 48.695,185.772 47.8,186.421 C47.446,186.678 47.035,186.801 46.628,186.801 Z M62.483,205.351 C61.973,205.351 61.462,205.156 61.071,204.767 C57.852,201.557 54.739,198.17 51.822,194.699 C51.111,193.854 51.22,192.592 52.065,191.881 C52.912,191.172 54.173,191.28 54.883,192.125 C57.726,195.507 60.758,198.807 63.896,201.935 C64.678,202.714 64.68,203.98 63.9,204.763 C63.509,205.154 62.996,205.351 62.483,205.351 Z M79.033,209.188 C78.587,209.188 78.14,209.041 77.769,208.737 C44.911,181.897 26.067,143.378 26.067,103.058 C26.067,69.7 53.206,42.561 86.564,42.561 C119.369,42.561 146.351,69.046 147.05,101.754 C150.195,104.777 165.608,110.093 176.884,110.421 C177.987,110.453 178.856,111.374 178.824,112.479 C178.793,113.582 177.908,114.481 176.767,114.419 C164.737,114.069 146.666,108.237 143.429,103.66 C143.193,103.328 143.065,102.932 143.062,102.524 C142.772,71.666 117.428,46.561 86.564,46.561 C55.411,46.561 30.067,71.906 30.067,103.058 C30.067,142.173 48.376,179.563 80.299,205.64 C81.154,206.338 81.281,207.599 80.583,208.454 C80.187,208.938 79.612,209.188 79.033,209.188 Z M175.897,122.81 C175.863,122.81 175.829,122.809 175.794,122.807 C163.686,122.192 134.648,115.637 134.648,103.058 C134.648,99.054 134.153,95.073 133.176,91.227 C132.904,90.156 133.551,89.068 134.622,88.796 C135.698,88.522 136.78,89.172 137.053,90.242 C138.111,94.41 138.648,98.722 138.648,103.058 C138.648,110.966 161.306,118.066 175.997,118.813 C177.1,118.868 177.949,119.808 177.893,120.911 C177.839,121.979 176.955,122.81 175.897,122.81 Z M131.42,82.786 C130.686,82.786 129.979,82.38 129.628,81.678 C121.416,65.208 104.915,54.976 86.564,54.976 C85.459,54.976 84.564,54.081 84.564,52.976 C84.564,51.872 85.459,50.976 86.564,50.976 C106.441,50.976 124.314,62.057 133.208,79.893 C133.701,80.882 133.299,82.083 132.311,82.576 C132.023,82.718 131.72,82.786 131.42,82.786 Z M48.229,157.012 C47.48,157.012 46.762,156.59 46.42,155.867 C38.499,139.137 34.482,121.369 34.482,103.058 C34.482,79.393 50.47,58.673 73.362,52.671 C74.432,52.393 75.524,53.03 75.804,54.098 C76.084,55.167 75.445,56.26 74.377,56.54 C53.243,62.081 38.482,81.21 38.482,103.058 C38.482,120.772 42.369,137.964 50.035,154.156 C50.508,155.154 50.082,156.347 49.083,156.819 C48.807,156.95 48.516,157.012 48.229,157.012 Z M93.274,209.515 C92.885,209.515 92.491,209.401 92.146,209.164 C75.209,197.546 60.962,182.12 50.946,164.554 C50.399,163.595 50.733,162.373 51.693,161.826 C52.654,161.277 53.875,161.614 54.421,162.573 C64.14,179.617 77.967,194.588 94.407,205.865 C95.318,206.49 95.551,207.735 94.926,208.646 C94.538,209.211 93.912,209.515 93.274,209.515 Z M174.409,131.129 C174.358,131.129 174.307,131.127 174.255,131.123 C171.547,130.917 165.963,130.327 159.003,128.699 C157.927,128.448 157.259,127.372 157.511,126.297 C157.763,125.221 158.847,124.553 159.913,124.805 C164.807,125.949 170.146,126.799 174.56,127.135 C175.66,127.219 176.485,128.18 176.401,129.281 C176.321,130.33 175.445,131.129 174.409,131.129 Z M148.242,125.38 C148.006,125.38 147.766,125.337 147.532,125.249 C133.599,119.957 126.233,112.284 126.233,103.058 C126.233,81.186 108.438,63.391 86.564,63.391 C72.042,63.391 58.688,71.338 51.711,84.13 C51.183,85.1 49.97,85.459 48.998,84.929 C48.028,84.4 47.671,83.185 48.2,82.215 C55.877,68.137 70.578,59.391 86.564,59.391 C110.644,59.391 130.233,78.98 130.233,103.058 C130.233,112.433 140.413,118.267 148.952,121.509 C149.984,121.901 150.504,123.057 150.112,124.089 C149.809,124.888 149.049,125.38 148.242,125.38 Z M105.815,207.618 C105.476,207.618 105.131,207.532 104.815,207.35 C66.623,185.248 42.897,145.286 42.897,103.058 C42.897,100.237 43.169,97.414 43.707,94.667 C43.918,93.583 44.965,92.873 46.053,93.088 C47.137,93.3 47.844,94.351 47.632,95.435 C47.145,97.93 46.897,100.495 46.897,103.058 C46.897,143.863 69.858,182.499 106.819,203.887 C107.775,204.44 108.102,205.664 107.549,206.62 C107.178,207.261 106.506,207.618 105.815,207.618 Z M172.264,139.391 C172.202,139.391 172.14,139.388 172.077,139.382 C147.047,137.062 117.818,126.156 117.818,103.058 C117.818,99.521 117.229,96.05 116.068,92.741 C115.702,91.699 116.25,90.557 117.293,90.191 C118.332,89.826 119.477,90.374 119.842,91.416 C121.153,95.152 121.818,99.068 121.818,103.058 C121.818,129.931 167.265,134.919 172.446,135.399 C173.546,135.501 174.355,136.476 174.253,137.575 C174.157,138.612 173.285,139.391 172.264,139.391 Z M59.221,139.797 C58.395,139.797 57.622,139.28 57.333,138.457 C53.338,127.047 51.313,115.137 51.313,103.058 C51.313,83.62 67.126,67.806 86.564,67.806 C97.487,67.806 107.622,72.764 114.368,81.407 C115.047,82.278 114.893,83.535 114.021,84.214 C113.151,84.894 111.894,84.74 111.215,83.868 C105.231,76.203 96.247,71.806 86.564,71.806 C69.332,71.806 55.313,85.826 55.313,103.058 C55.313,114.686 57.263,126.15 61.108,137.135 C61.473,138.178 60.924,139.318 59.882,139.684 C59.663,139.76 59.44,139.797 59.221,139.797 Z M116.841,204.085 C116.547,204.085 116.25,204.021 115.969,203.884 C93.3,192.883 74.522,174.437 63.095,151.945 C62.595,150.96 62.988,149.756 63.973,149.256 C64.957,148.755 66.16,149.147 66.662,150.133 C77.696,171.852 95.827,189.663 117.715,200.286 C118.709,200.768 119.123,201.965 118.641,202.958 C118.295,203.671 117.582,204.085 116.841,204.085 Z M169.509,147.566 C169.435,147.566 169.359,147.563 169.284,147.554 C140.336,144.328 109.402,130.945 109.402,103.058 C109.402,91.94 101.46,82.48 90.516,80.563 C89.428,80.373 88.701,79.336 88.891,78.248 C89.082,77.16 90.121,76.434 91.206,76.623 C104.067,78.875 113.402,89.993 113.402,103.058 C113.402,135.651 160.321,142.53 169.728,143.579 C170.825,143.701 171.616,144.69 171.493,145.788 C171.38,146.811 170.514,147.566 169.509,147.566 Z M126.713,199.364 C126.468,199.364 126.218,199.318 125.975,199.222 C107.956,192.059 91.495,179.188 79.625,162.98 C66.608,145.21 59.728,124.488 59.728,103.058 C59.728,91.328 67.241,81.05 78.424,77.483 C79.479,77.148 80.602,77.729 80.937,78.781 C81.273,79.833 80.692,80.958 79.64,81.294 C70.122,84.33 63.728,93.076 63.728,103.058 C63.728,149.419 95.733,182.895 127.453,195.505 C128.479,195.913 128.98,197.076 128.572,198.103 C128.261,198.886 127.509,199.364 126.713,199.364 Z M135.504,193.618 C135.307,193.618 135.106,193.588 134.908,193.526 C118.498,188.414 102.926,177.948 91.06,164.058 C90.342,163.218 90.441,161.956 91.281,161.238 C92.121,160.52 93.383,160.62 94.101,161.46 C105.483,174.784 120.398,184.816 136.098,189.708 C137.152,190.036 137.741,191.157 137.412,192.212 C137.146,193.068 136.355,193.618 135.504,193.618 Z M86.611,157.013 C85.977,157.013 85.354,156.713 84.965,156.152 C73.96,140.282 68.143,121.923 68.143,103.058 C68.143,92.9 76.406,84.637 86.564,84.637 C96.723,84.637 104.987,92.9 104.987,103.058 C104.987,140.945 151.932,149.87 166.32,151.703 C167.416,151.843 168.191,152.845 168.052,153.94 C167.912,155.037 166.9,155.807 165.814,155.672 C150.606,153.734 100.987,144.214 100.987,103.058 C100.987,95.106 94.517,88.637 86.564,88.637 C78.612,88.637 72.143,95.106 72.143,103.058 C72.143,121.104 77.713,138.676 88.252,153.873 C88.882,154.78 88.656,156.026 87.749,156.656 C87.401,156.897 87.004,157.013 86.611,157.013 Z M150.477,179.728 C150.384,179.728 150.291,179.722 150.197,179.708 C126.866,176.456 98.13,156.768 88.351,125.43 C88.032,124.406 88.576,123.313 89.586,122.951 C90.596,122.588 91.711,123.088 92.113,124.082 C97.301,136.873 107.403,147.442 122.141,155.497 C123.11,156.026 123.467,157.242 122.937,158.211 C122.407,159.181 121.192,159.539 120.223,159.007 C114.802,156.044 109.97,152.749 105.741,149.136 C118.258,164.3 135.695,173.648 150.75,175.747 C151.844,175.899 152.607,176.91 152.454,178.004 C152.315,179.004 151.458,179.728 150.477,179.728 Z M156.956,171.439 C156.841,171.439 156.724,171.43 156.605,171.409 C146.989,169.706 137.836,167.024 129.399,163.438 C128.383,163.006 127.909,161.832 128.341,160.815 C128.773,159.799 129.947,159.325 130.964,159.757 C139.122,163.226 147.984,165.82 157.303,167.47 C158.391,167.663 159.116,168.7 158.924,169.788 C158.752,170.758 157.908,171.439 156.956,171.439 Z M143.432,187.018 C143.283,187.018 143.133,187.001 142.982,186.967 C110.781,179.576 76.558,147.657 76.558,103.058 C76.558,97.541 81.047,93.051 86.564,93.051 C92.082,93.051 96.571,97.541 96.571,103.058 C96.571,105.505 96.74,107.923 97.072,110.246 C97.229,111.339 96.47,112.353 95.376,112.509 C94.294,112.668 93.27,111.907 93.113,110.813 C92.754,108.303 92.571,105.694 92.571,103.058 C92.571,99.746 89.876,97.051 86.564,97.051 C83.252,97.051 80.558,99.746 80.558,103.058 C80.558,145.588 113.182,176.023 143.877,183.068 C144.954,183.315 145.626,184.389 145.379,185.465 C145.166,186.391 144.343,187.018 143.432,187.018 Z M161.89,163.698 C161.792,163.698 161.693,163.691 161.595,163.677 C149.407,161.876 108.67,153.56 96.13,122.17 C95.721,121.144 96.22,119.98 97.245,119.57 C98.274,119.161 99.436,119.661 99.845,120.686 C111.592,150.093 150.526,157.997 162.179,159.72 C163.271,159.881 164.026,160.898 163.865,161.99 C163.719,162.984 162.864,163.698 161.89,163.698 Z" id="Combined-Shape" fill="url(#linearGradient-1)"></path>
            <text id="CanCan" font-family="cuyabra-Regular, cuyabra" font-size="36" font-weight="normal" fill="#A05ACC">
                <tspan x="27" y="257">CanCan</tspan>
            </text>
        </g>
    </g>
</svg>